<svg width="18" height="20" viewBox="0 0 18 20" fill="none" xmlns="http://www.w3.org/2000/svg">
<path d="M17.338 13.4749C17.4247 13.6254 17.4483 13.8042 17.4035 13.972C17.3587 14.1399 17.2493 14.2831 17.0991 14.3705L9.21906 18.9672C9.11865 19.0257 9.00449 19.0566 8.88826 19.0566C8.77202 19.0566 8.65787 19.0257 8.55746 18.9672L0.677414 14.3705C0.529412 14.2815 0.422395 14.1379 0.379532 13.9706C0.33667 13.8033 0.361411 13.6259 0.448401 13.4768C0.53539 13.3276 0.677626 13.2187 0.844314 13.1737C1.011 13.1286 1.18873 13.151 1.33901 13.2361L8.89072 17.6399L16.4424 13.2361C16.5929 13.1493 16.7717 13.1258 16.9395 13.1705C17.1074 13.2153 17.2506 13.3248 17.338 13.4749ZM16.4424 9.29604L8.89072 13.6998L1.33901 9.29604C1.18949 9.2216 1.01722 9.20693 0.857264 9.25502C0.697308 9.30311 0.561689 9.41034 0.47801 9.5549C0.394331 9.69946 0.368882 9.87047 0.406842 10.0331C0.444802 10.1958 0.543318 10.3379 0.682339 10.4304L8.56239 15.0271C8.6628 15.0857 8.77695 15.1165 8.89318 15.1165C9.00942 15.1165 9.12357 15.0857 9.22398 15.0271L17.104 10.4304C17.1797 10.3876 17.2461 10.3302 17.2995 10.2615C17.3528 10.1928 17.3919 10.1142 17.4146 10.0302C17.4373 9.94629 17.4431 9.85868 17.4316 9.77247C17.4202 9.68627 17.3917 9.6032 17.3479 9.52808C17.3041 9.45296 17.2458 9.38729 17.1764 9.33489C17.107 9.28248 17.0279 9.24438 16.9437 9.22279C16.8594 9.2012 16.7718 9.19656 16.6857 9.20914C16.5997 9.22171 16.517 9.25125 16.4424 9.29604ZM0.354004 5.92322C0.354266 5.8082 0.384732 5.69527 0.442354 5.59573C0.499976 5.49619 0.582732 5.41353 0.682339 5.35602L8.56239 0.759328C8.6628 0.700774 8.77695 0.669922 8.89318 0.669922C9.00942 0.669922 9.12357 0.700774 9.22398 0.759328L17.104 5.35602C17.2032 5.41385 17.2854 5.49666 17.3426 5.59618C17.3997 5.69569 17.4298 5.80846 17.4298 5.92322C17.4298 6.03799 17.3997 6.15075 17.3426 6.25027C17.2854 6.34979 17.2032 6.43259 17.104 6.49042L9.22398 11.0871C9.12357 11.1457 9.00942 11.1765 8.89318 11.1765C8.77695 11.1765 8.6628 11.1457 8.56239 11.0871L0.682339 6.49042C0.582732 6.43291 0.499976 6.35025 0.442354 6.25071C0.384732 6.15117 0.354266 6.03824 0.354004 5.92322ZM2.31417 5.92322L8.89072 9.75982L15.4673 5.92322L8.89072 2.08662L2.31417 5.92322Z" fill="#1DBC79"/>
</svg>
