<svg width="14" height="14" viewBox="0 0 14 14" fill="none" xmlns="http://www.w3.org/2000/svg">
<path d="M12.2517 0.722656H1.57467C1.29149 0.722656 1.01992 0.835147 0.819683 1.03538C0.619448 1.23561 0.506958 1.50719 0.506958 1.79036V12.4674C0.506958 12.7506 0.619448 13.0222 0.819683 13.2224C1.01992 13.4227 1.29149 13.5352 1.57467 13.5352H12.2517C12.5349 13.5352 12.8065 13.4227 13.0067 13.2224C13.207 13.0222 13.3195 12.7506 13.3195 12.4674V1.79036C13.3195 1.50719 13.207 1.23561 13.0067 1.03538C12.8065 0.835147 12.5349 0.722656 12.2517 0.722656ZM12.2517 12.4674H1.57467V1.79036H12.2517V12.4674ZM10.1163 7.12891C10.1163 7.27049 10.0601 7.40628 9.95997 7.5064C9.85985 7.60652 9.72407 7.66276 9.58248 7.66276H7.44706V9.79818C7.44706 9.93976 7.39082 10.0756 7.2907 10.1757C7.19058 10.2758 7.0548 10.332 6.91321 10.332C6.77162 10.332 6.63583 10.2758 6.53572 10.1757C6.4356 10.0756 6.37935 9.93976 6.37935 9.79818V7.66276H4.24394C4.10235 7.66276 3.96656 7.60652 3.86645 7.5064C3.76633 7.40628 3.71008 7.27049 3.71008 7.12891C3.71008 6.98732 3.76633 6.85153 3.86645 6.75141C3.96656 6.6513 4.10235 6.59505 4.24394 6.59505H6.37935V4.45964C6.37935 4.31805 6.4356 4.18226 6.53572 4.08214C6.63583 3.98203 6.77162 3.92578 6.91321 3.92578C7.0548 3.92578 7.19058 3.98203 7.2907 4.08214C7.39082 4.18226 7.44706 4.31805 7.44706 4.45964V6.59505H9.58248C9.72407 6.59505 9.85985 6.6513 9.95997 6.75141C10.0601 6.85153 10.1163 6.98732 10.1163 7.12891Z" fill="#606062"/>
</svg>
