<svg width="13" height="13" viewBox="0 0 13 13" fill="none" xmlns="http://www.w3.org/2000/svg">
<path d="M12.4583 4.33333H9.75V1.625C9.75 1.48134 9.69293 1.34357 9.59135 1.24198C9.48977 1.1404 9.35199 1.08333 9.20833 1.08333H1.08333V0.541667C1.08333 0.398008 1.02627 0.260233 0.924683 0.158651C0.823101 0.0570684 0.685326 0 0.541667 0C0.398008 0 0.260233 0.0570684 0.158651 0.158651C0.0570684 0.260233 0 0.398008 0 0.541667V12.4583C0 12.602 0.0570684 12.7398 0.158651 12.8414C0.260233 12.9429 0.398008 13 0.541667 13C0.685326 13 0.823101 12.9429 0.924683 12.8414C1.02627 12.7398 1.08333 12.602 1.08333 12.4583V11.9167H7.04167C7.18533 11.9167 7.3231 11.8596 7.42468 11.758C7.52627 11.6564 7.58333 11.5187 7.58333 11.375V8.66667H12.4583C12.602 8.66667 12.7398 8.6096 12.8414 8.50802C12.9429 8.40644 13 8.26866 13 8.125V4.875C13 4.73134 12.9429 4.59357 12.8414 4.49198C12.7398 4.3904 12.602 4.33333 12.4583 4.33333ZM8.66667 2.16667V4.33333H1.08333V2.16667H8.66667ZM6.5 10.8333H1.08333V8.66667H6.5V10.8333ZM11.9167 7.58333H1.08333V5.41667H11.9167V7.58333Z" fill="black" fill-opacity="0.8"/>
</svg>
