<svg width="13" height="14" viewBox="0 0 13 14" fill="none" xmlns="http://www.w3.org/2000/svg">
<path d="M6.13221 0.679688C2.81636 0.679688 0.21875 2.19501 0.21875 4.12921V10.0427C0.21875 11.9769 2.81636 13.4922 6.13221 13.4922C9.44806 13.4922 12.0457 11.9769 12.0457 10.0427V4.12921C12.0457 2.19501 9.44806 0.679688 6.13221 0.679688ZM11.0601 7.08594C11.0601 7.67852 10.5747 8.2828 9.72895 8.74417C8.77664 9.26345 7.49908 9.54988 6.13221 9.54988C4.76534 9.54988 3.48779 9.26345 2.53547 8.74417C1.68972 8.2828 1.20433 7.67852 1.20433 7.08594V6.06094C2.2552 6.98492 4.05203 7.57873 6.13221 7.57873C8.21239 7.57873 10.0092 6.98245 11.0601 6.06094V7.08594ZM2.53547 2.47097C3.48779 1.9517 4.76534 1.66526 6.13221 1.66526C7.49908 1.66526 8.77664 1.9517 9.72895 2.47097C10.5747 2.93235 11.0601 3.53663 11.0601 4.12921C11.0601 4.72179 10.5747 5.32607 9.72895 5.78744C8.77664 6.30672 7.49908 6.59315 6.13221 6.59315C4.76534 6.59315 3.48779 6.30672 2.53547 5.78744C1.68972 5.32607 1.20433 4.72179 1.20433 4.12921C1.20433 3.53663 1.68972 2.93235 2.53547 2.47097ZM9.72895 11.7009C8.77664 12.2202 7.49908 12.5066 6.13221 12.5066C4.76534 12.5066 3.48779 12.2202 2.53547 11.7009C1.68972 11.2395 1.20433 10.6352 1.20433 10.0427V9.01767C2.2552 9.94165 4.05203 10.5355 6.13221 10.5355C8.21239 10.5355 10.0092 9.93918 11.0601 9.01767V10.0427C11.0601 10.6352 10.5747 11.2395 9.72895 11.7009Z" fill="#606062"/>
</svg>
