<svg width="20" height="16" viewBox="0 0 20 16" fill="none" xmlns="http://www.w3.org/2000/svg">
<path d="M18.1719 0.382812H1.59097C1.1912 0.382813 0.807795 0.541622 0.525112 0.824306C0.242428 1.10699 0.0836182 1.49039 0.0836182 1.89017V13.949C0.0836182 14.3488 0.242428 14.7322 0.525112 15.0148C0.807795 15.2975 1.1912 15.4563 1.59097 15.4563H18.1719C18.5716 15.4563 18.955 15.2975 19.2377 15.0148C19.5204 14.7322 19.6792 14.3488 19.6792 13.949V1.89017C19.6792 1.49039 19.5204 1.10699 19.2377 0.824306C18.955 0.541622 18.5716 0.382813 18.1719 0.382812ZM7.62038 9.42693V6.41222H12.1424V9.42693H7.62038ZM12.1424 10.9343V13.949H7.62038V10.9343H12.1424ZM1.59097 6.41222H6.11303V9.42693H1.59097V6.41222ZM7.62038 4.90487V1.89017H12.1424V4.90487H7.62038ZM13.6498 6.41222H18.1719V9.42693H13.6498V6.41222ZM18.1719 4.90487H13.6498V1.89017H18.1719V4.90487ZM6.11303 1.89017V4.90487H1.59097V1.89017H6.11303ZM1.59097 10.9343H6.11303V13.949H1.59097V10.9343ZM18.1719 13.949H13.6498V10.9343H18.1719V13.949Z" fill="#1DBC79"/>
</svg>
