<svg width="15" height="21" viewBox="0 0 15 21" fill="none" xmlns="http://www.w3.org/2000/svg">
<path d="M12.9231 0H1.61538C1.18696 0 0.776078 0.170192 0.473135 0.473135C0.170192 0.776078 0 1.18696 0 1.61538V5.25C0.000545687 5.50068 0.0591735 5.74783 0.171283 5.97205C0.283393 6.19627 0.445934 6.39146 0.646154 6.54231L5.92341 10.5L0.646154 14.4577C0.445934 14.6085 0.283393 14.8037 0.171283 15.0279C0.0591735 15.2522 0.000545687 15.4993 0 15.75V19.3846C0 19.813 0.170192 20.2239 0.473135 20.5269C0.776078 20.8298 1.18696 21 1.61538 21H12.9231C13.3515 21 13.7624 20.8298 14.0653 20.5269C14.3683 20.2239 14.5385 19.813 14.5385 19.3846V15.7863C14.5379 15.5366 14.4797 15.2904 14.3686 15.0668C14.2574 14.8432 14.0961 14.6482 13.8974 14.4971L8.60899 10.5L13.8974 6.50192C14.0962 6.35107 14.2575 6.15632 14.3688 5.93286C14.48 5.70939 14.538 5.46326 14.5385 5.21365V1.61538C14.5385 1.18696 14.3683 0.776078 14.0653 0.473135C13.7624 0.170192 13.3515 0 12.9231 0ZM12.9231 1.61538V3.23077H1.61538V1.61538H12.9231ZM12.9231 19.3846H1.61538V15.75L7.26923 11.5096L12.9231 15.7853V19.3846ZM7.26923 9.49038L1.61538 5.25V4.84615H12.9231V5.21365L7.26923 9.49038Z" fill="#1DBC79"/>
</svg>
