<svg width="20" height="19" viewBox="0 0 20 19" fill="none" xmlns="http://www.w3.org/2000/svg">
<path d="M17.9191 14.9322C18.3346 14.5171 18.6176 13.9882 18.7324 13.4122C18.8473 12.8363 18.7887 12.2392 18.5641 11.6965C18.3395 11.1539 17.959 10.6901 17.4707 10.3637C16.9824 10.0374 16.4083 9.86317 15.821 9.86317C15.2338 9.86317 14.6597 10.0374 14.1714 10.3637C13.6831 10.6901 13.3026 11.1539 13.078 11.6965C12.8534 12.2392 12.7948 12.8363 12.9097 13.4122C13.0245 13.9882 13.3075 14.5171 13.723 14.9322C12.9426 15.4301 12.3764 16.2017 12.1357 17.0956C12.085 17.2858 12.112 17.4883 12.2106 17.6586C12.3093 17.829 12.4715 17.9531 12.6617 18.0038C12.7241 18.0203 12.7883 18.0287 12.8528 18.0289C13.0165 18.0288 13.1756 17.9747 13.3053 17.8748C13.435 17.775 13.528 17.6351 13.57 17.4769C13.8325 16.4907 14.7584 15.8024 15.8215 15.8024C16.8847 15.8024 17.8105 16.4907 18.0731 17.4769C18.0966 17.5727 18.1389 17.6629 18.1977 17.7422C18.2565 17.8214 18.3305 17.8882 18.4153 17.9385C18.5002 17.9888 18.5943 18.0217 18.692 18.0353C18.7897 18.0488 18.8892 18.0428 18.9846 18.0174C19.0799 17.9921 19.1693 17.9479 19.2474 17.8876C19.3255 17.8273 19.3908 17.7521 19.4395 17.6663C19.4881 17.5804 19.5192 17.4857 19.5309 17.3878C19.5425 17.2898 19.5345 17.1904 19.5073 17.0956C19.2663 16.2016 18.6998 15.4299 17.9191 14.9322ZM15.8215 11.3493C16.1151 11.3493 16.4021 11.4364 16.6462 11.5995C16.8903 11.7626 17.0805 11.9944 17.1929 12.2657C17.3052 12.5369 17.3346 12.8353 17.2773 13.1233C17.2201 13.4112 17.0787 13.6757 16.8711 13.8833C16.6635 14.0909 16.399 14.2322 16.1111 14.2895C15.8232 14.3468 15.5247 14.3174 15.2535 14.205C14.9822 14.0927 14.7504 13.9024 14.5873 13.6583C14.4242 13.4142 14.3372 13.1273 14.3372 12.8337C14.3372 12.44 14.4936 12.0625 14.7719 11.7841C15.0503 11.5057 15.4278 11.3493 15.8215 11.3493ZM19.5324 4.66983V7.63851C19.5324 7.83534 19.4542 8.02411 19.315 8.1633C19.1758 8.30248 18.987 8.38067 18.7902 8.38067C18.5933 8.38067 18.4046 8.30248 18.2654 8.1633C18.1262 8.02411 18.048 7.83534 18.048 7.63851V4.66983H10.1319C9.81082 4.66903 9.49856 4.56495 9.24125 4.37296L6.66778 2.44332H1.7203V15.0602H9.14199C9.33882 15.0602 9.5276 15.1384 9.66678 15.2776C9.80597 15.4168 9.88416 15.6055 9.88416 15.8024C9.88416 15.9992 9.80597 16.188 9.66678 16.3272C9.5276 16.4663 9.33882 16.5445 9.14199 16.5445H1.7203C1.32663 16.5445 0.949082 16.3881 0.670714 16.1098C0.392347 15.8314 0.235962 15.4539 0.235962 15.0602V2.44332C0.235962 2.04965 0.392347 1.6721 0.670714 1.39374C0.949082 1.11537 1.32663 0.958984 1.7203 0.958984H6.66778C6.98882 0.959781 7.30108 1.06387 7.55839 1.25585L10.1319 3.18549H18.048C18.4417 3.18549 18.8192 3.34188 19.0976 3.62024C19.376 3.89861 19.5324 4.27616 19.5324 4.66983Z" fill="#1DBC79"/>
</svg>
