<svg width="20" height="14" viewBox="0 0 20 14" fill="none" xmlns="http://www.w3.org/2000/svg">
<path d="M18.2 0H1.4C1.0287 0 0.672601 0.1475 0.41005 0.41005C0.1475 0.672601 0 1.0287 0 1.4V12.6C0 12.9713 0.1475 13.3274 0.41005 13.5899C0.672601 13.8525 1.0287 14 1.4 14H18.2C18.5713 14 18.9274 13.8525 19.1899 13.5899C19.4525 13.3274 19.6 12.9713 19.6 12.6V1.4C19.6 1.0287 19.4525 0.672601 19.1899 0.41005C18.9274 0.1475 18.5713 0 18.2 0ZM18.2 1.4V3.5H1.4V1.4H18.2ZM18.2 12.6H1.4V4.9H18.2V12.6ZM16.8 10.5C16.8 10.6857 16.7262 10.8637 16.595 10.995C16.4637 11.1263 16.2857 11.2 16.1 11.2H13.3C13.1143 11.2 12.9363 11.1263 12.805 10.995C12.6737 10.8637 12.6 10.6857 12.6 10.5C12.6 10.3143 12.6737 10.1363 12.805 10.005C12.9363 9.87375 13.1143 9.8 13.3 9.8H16.1C16.2857 9.8 16.4637 9.87375 16.595 10.005C16.7262 10.1363 16.8 10.3143 16.8 10.5ZM11.2 10.5C11.2 10.6857 11.1263 10.8637 10.995 10.995C10.8637 11.1263 10.6857 11.2 10.5 11.2H9.1C8.91435 11.2 8.7363 11.1263 8.60503 10.995C8.47375 10.8637 8.4 10.6857 8.4 10.5C8.4 10.3143 8.47375 10.1363 8.60503 10.005C8.7363 9.87375 8.91435 9.8 9.1 9.8H10.5C10.6857 9.8 10.8637 9.87375 10.995 10.005C11.1263 10.1363 11.2 10.3143 11.2 10.5Z" fill="#606062"/>
</svg>
