<svg width="14" height="13" viewBox="0 0 14 13" fill="none" xmlns="http://www.w3.org/2000/svg">
<path d="M4.79363 0.753907H2.40812C2.25188 0.753745 2.09715 0.784398 1.95278 0.844112C1.8084 0.903826 1.67722 0.991428 1.56675 1.1019C1.45627 1.21238 1.36867 1.34356 1.30896 1.48793C1.24924 1.63231 1.21859 1.78704 1.21875 1.94328V4.32879C1.21842 4.64489 1.34343 4.94824 1.56637 5.17234C1.78932 5.39644 2.09201 5.52301 2.40812 5.52431H4.79363C4.95067 5.52447 5.10621 5.49366 5.25133 5.43364C5.39645 5.37361 5.52831 5.28556 5.63936 5.17451C5.7504 5.06346 5.83846 4.93161 5.89848 4.78649C5.95851 4.64136 5.98932 4.48583 5.98916 4.32879V1.94328C5.98785 1.62717 5.86128 1.32447 5.63718 1.10153C5.41308 0.878585 5.10974 0.753578 4.79363 0.753907ZM11.4183 0.753907H9.03276C8.71665 0.753578 8.4133 0.878585 8.18921 1.10153C7.96511 1.32447 7.83854 1.62717 7.83723 1.94328V4.32879C7.8374 4.64581 7.96341 4.9498 8.18757 5.17397C8.41174 5.39814 8.71574 5.52415 9.03276 5.52431H11.4183C11.7344 5.52301 12.0371 5.39644 12.26 5.17234C12.483 4.94824 12.608 4.64489 12.6076 4.32879V1.94328C12.6078 1.78704 12.5771 1.63231 12.5174 1.48793C12.4577 1.34356 12.3701 1.21238 12.2596 1.1019C12.1492 0.991428 12.018 0.903826 11.8736 0.844112C11.7292 0.784398 11.5745 0.753745 11.4183 0.753907ZM11.4183 7.37177H9.03276C8.71654 7.37145 8.41311 7.49654 8.18899 7.71961C7.96487 7.94269 7.83837 8.24555 7.83723 8.56176V10.9473C7.83707 11.1043 7.86788 11.2598 7.92791 11.405C7.98793 11.5501 8.07599 11.6819 8.18703 11.793C8.29808 11.904 8.42994 11.9921 8.57506 12.0521C8.72018 12.1121 8.87571 12.143 9.03276 12.1428H11.4183C11.7344 12.1415 12.0371 12.0149 12.26 11.7908C12.483 11.5667 12.608 11.2634 12.6076 10.9473V8.56176C12.6078 8.40552 12.5771 8.25079 12.5174 8.10642C12.4577 7.96204 12.3701 7.83086 12.2596 7.72039C12.1492 7.60991 12.018 7.52231 11.8736 7.46259C11.7292 7.40288 11.5745 7.37161 11.4183 7.37177ZM4.79363 7.37177H2.40812C2.09206 7.37356 1.78955 7.50037 1.56669 7.7245C1.34384 7.94863 1.21875 8.25185 1.21875 8.56791V10.9534C1.21859 11.1097 1.24924 11.2644 1.30896 11.4088C1.36867 11.5531 1.45627 11.6843 1.56675 11.7948C1.67722 11.9053 1.8084 11.9929 1.95278 12.0526C2.09715 12.1123 2.25188 12.143 2.40812 12.1428H4.79363C5.10974 12.1431 5.41308 12.0181 5.63718 11.7952C5.86128 11.5722 5.98785 11.2695 5.98916 10.9534V8.56791C5.98932 8.41087 5.95851 8.25534 5.89848 8.11022C5.83846 7.96509 5.7504 7.83324 5.63936 7.72219C5.52831 7.61114 5.39645 7.52309 5.25133 7.46306C5.10621 7.40304 4.95067 7.37161 4.79363 7.37177Z" stroke="black" stroke-width="0.923423" stroke-linecap="round" stroke-linejoin="round"/>
</svg>
