<svg width="14" height="12" viewBox="0 0 14 12" fill="none" xmlns="http://www.w3.org/2000/svg">
<path d="M13.4545 10.8671C13.4545 11.0044 13.4 11.136 13.303 11.233C13.2059 11.3301 13.0743 11.3846 12.9371 11.3846H0.517483C0.380238 11.3846 0.248614 11.3301 0.151567 11.233C0.0545203 11.136 0 11.0044 0 10.8671V0.517483C0 0.380238 0.0545203 0.248614 0.151567 0.151567C0.248614 0.0545204 0.380238 0 0.517483 0C0.654727 0 0.786351 0.0545204 0.883398 0.151567C0.980445 0.248614 1.03497 0.380238 1.03497 0.517483V7.54813L4.29122 4.29122C4.33928 4.24311 4.39636 4.20494 4.45918 4.1789C4.522 4.15286 4.58934 4.13945 4.65734 4.13945C4.72535 4.13945 4.79269 4.15286 4.85551 4.1789C4.91833 4.20494 4.9754 4.24311 5.02346 4.29122L6.72727 5.99568L10.1355 2.58741H8.7972C8.65996 2.58741 8.52833 2.53289 8.43129 2.43585C8.33424 2.3388 8.27972 2.20718 8.27972 2.06993C8.27972 1.93269 8.33424 1.80106 8.43129 1.70401C8.52833 1.60697 8.65996 1.55245 8.7972 1.55245H11.3846C11.5219 1.55245 11.6535 1.60697 11.7505 1.70401C11.8476 1.80106 11.9021 1.93269 11.9021 2.06993V4.65734C11.9021 4.79459 11.8476 4.92621 11.7505 5.02326C11.6535 5.1203 11.5219 5.17483 11.3846 5.17483C11.2474 5.17483 11.1157 5.1203 11.0187 5.02326C10.9217 4.92621 10.8671 4.79459 10.8671 4.65734V3.319L7.09339 7.09339C7.04533 7.14151 6.98826 7.17967 6.92544 7.20572C6.86262 7.23176 6.79528 7.24516 6.72727 7.24516C6.65927 7.24516 6.59193 7.23176 6.52911 7.20572C6.46629 7.17967 6.40921 7.14151 6.36115 7.09339L4.65734 5.38893L1.03497 9.01131V10.3497H12.9371C13.0743 10.3497 13.2059 10.4042 13.303 10.5012C13.4 10.5983 13.4545 10.7299 13.4545 10.8671Z" fill="black" fill-opacity="0.8"/>
</svg>
