<svg width="12" height="13" viewBox="0 0 12 13" fill="none" xmlns="http://www.w3.org/2000/svg">
<path d="M11.8631 9.49728C11.5161 8.89971 11.0005 7.2089 11.0005 5.00054C11.0005 3.67431 10.4736 2.40241 9.53584 1.46462C8.59806 0.526841 7.32615 0 5.99992 0C4.6737 0 3.40179 0.526841 2.46401 1.46462C1.52622 2.40241 0.999384 3.67431 0.999384 5.00054C0.999384 7.20953 0.483078 8.89971 0.136165 9.49728C0.0475748 9.64919 0.000609625 9.82179 5.89499e-06 9.99765C-0.000597835 10.1735 0.0451813 10.3464 0.132727 10.4989C0.220272 10.6515 0.346488 10.7782 0.498645 10.8664C0.650803 10.9546 0.823522 11.0011 0.999384 11.0012H3.55028C3.66565 11.5657 3.97247 12.0731 4.41884 12.4375C4.8652 12.8018 5.42372 13.0008 5.99992 13.0008C6.57613 13.0008 7.13465 12.8018 7.58101 12.4375C8.02738 12.0731 8.33419 11.5657 8.44956 11.0012H11.0005C11.1763 11.001 11.3489 10.9544 11.501 10.8662C11.6531 10.7779 11.7792 10.6512 11.8667 10.4987C11.9541 10.3462 11.9998 10.1733 11.9992 9.99749C11.9986 9.82168 11.9516 9.64915 11.8631 9.49728ZM5.99992 12.0013C5.68978 12.0012 5.38729 11.905 5.13408 11.7259C4.88087 11.5468 4.6894 11.2936 4.58602 11.0012H7.41383C7.31044 11.2936 7.11897 11.5468 6.86577 11.7259C6.61256 11.905 6.31007 12.0012 5.99992 12.0013ZM0.999384 10.0011C1.48069 9.17349 1.99949 7.25578 1.99949 5.00054C1.99949 3.93956 2.42096 2.92203 3.17119 2.17181C3.92142 1.42158 4.93894 1.00011 5.99992 1.00011C7.0609 1.00011 8.07843 1.42158 8.82866 2.17181C9.57888 2.92203 10.0004 3.93956 10.0004 5.00054C10.0004 7.25391 10.5179 9.17162 11.0005 10.0011H0.999384Z" fill="black" fill-opacity="0.8"/>
</svg>
