<svg width="20" height="20" viewBox="0 0 20 20" fill="none" xmlns="http://www.w3.org/2000/svg">
<path d="M7.59445 9.81841C7.59445 10.3881 7.82075 10.9344 8.22357 11.3372C8.62638 11.74 9.17271 11.9663 9.74238 11.9663C10.312 11.9663 10.8584 11.74 11.2612 11.3372C11.664 10.9344 11.8903 10.3881 11.8903 9.81841C11.8903 9.24874 11.664 8.70241 11.2612 8.29959C10.8584 7.89678 10.312 7.67048 9.74238 7.67048C9.17271 7.67048 8.62638 7.89678 8.22357 8.29959C7.82075 8.70241 7.59445 9.24874 7.59445 9.81841ZM18.0694 9.32362C16.2514 5.49379 13.5032 3.56641 9.81909 3.56641C6.1331 3.56641 3.38682 5.49379 1.56875 9.32554C1.49583 9.47995 1.45801 9.6486 1.45801 9.81937C1.45801 9.99013 1.49583 10.1588 1.56875 10.3132C3.38682 14.143 6.13501 16.0704 9.81909 16.0704C13.5051 16.0704 16.2514 14.143 18.0694 10.3113C18.2171 10.0006 18.2171 9.64005 18.0694 9.32362ZM9.74238 13.1937C7.87829 13.1937 6.36707 11.6825 6.36707 9.81841C6.36707 7.95431 7.87829 6.44309 9.74238 6.44309C11.6065 6.44309 13.1177 7.95431 13.1177 9.81841C13.1177 11.6825 11.6065 13.1937 9.74238 13.1937Z" fill="#718096"/>
</svg>
