<svg width="33" height="27" viewBox="0 0 33 27" fill="none" xmlns="http://www.w3.org/2000/svg">
<path d="M30.5993 9.81995C30.5551 9.71859 29.474 7.32111 27.0596 4.90673C24.8193 2.66907 20.9704 0 15.3333 0C9.69632 0 5.84734 2.66907 3.60709 4.90673C1.19271 7.32111 0.111563 9.71469 0.0673818 9.81995C0.0229567 9.91975 0 10.0278 0 10.137C0 10.2463 0.0229567 10.3543 0.0673818 10.4541C0.111563 10.5541 1.19271 12.9516 3.60709 15.366C5.84734 17.6037 9.69632 20.2714 15.3333 20.2714C20.9704 20.2714 24.8193 17.6037 27.0596 15.366C29.474 12.9516 30.5551 10.558 30.5993 10.4541C30.6437 10.3543 30.6667 10.2463 30.6667 10.137C30.6667 10.0278 30.6437 9.91975 30.5993 9.81995ZM15.3333 18.7121C11.2557 18.7121 7.69516 17.2281 4.7493 14.3031C3.51445 13.0757 2.46947 11.6712 1.64881 10.1357C2.46925 8.60049 3.51426 7.19634 4.7493 5.96968C7.69516 3.04331 11.2557 1.55934 15.3333 1.55934C19.411 1.55934 22.9715 3.04331 25.9174 5.96968C27.1524 7.19634 28.1974 8.60049 29.0179 10.1357C28.1901 11.7223 24.0397 18.7121 15.3333 18.7121ZM15.3333 4.15824C14.1511 4.15824 12.9954 4.50882 12.0124 5.16563C11.0294 5.82244 10.2633 6.756 9.81087 7.84824C9.35845 8.94048 9.24007 10.1423 9.47072 11.3019C9.70136 12.4614 10.2707 13.5265 11.1066 14.3624C11.9426 15.1984 13.0077 15.7677 14.1672 15.9983C15.3267 16.229 16.5286 16.1106 17.6208 15.6582C18.7131 15.2058 19.6466 14.4396 20.3034 13.4566C20.9602 12.4736 21.3108 11.318 21.3108 10.1357C21.3087 8.55103 20.6783 7.03183 19.5578 5.91128C18.4372 4.79074 16.918 4.16031 15.3333 4.15824ZM15.3333 14.5539C14.4595 14.5539 13.6053 14.2947 12.8788 13.8093C12.1522 13.3238 11.5859 12.6338 11.2515 11.8265C10.9171 11.0192 10.8296 10.1308 11.0001 9.27378C11.1706 8.41675 11.5914 7.62951 12.2092 7.01163C12.8271 6.39374 13.6144 5.97295 14.4714 5.80248C15.3284 5.632 16.2168 5.7195 17.0241 6.05389C17.8314 6.38829 18.5214 6.95458 19.0069 7.68113C19.4924 8.40769 19.7515 9.26189 19.7515 10.1357C19.7515 11.3075 19.286 12.4312 18.4574 13.2598C17.6289 14.0884 16.5051 14.5539 15.3333 14.5539Z" fill="#1DBC79"/>
<path d="M32.2374 16.1051V19.042C32.2374 19.2368 32.16 19.4235 32.0223 19.5612C31.8846 19.6989 31.6979 19.7763 31.5031 19.7763H28.5662C28.3714 19.7763 28.1847 19.6989 28.047 19.5612C27.9093 19.4235 27.8319 19.2368 27.8319 19.042C27.8319 18.8473 27.9093 18.6605 28.047 18.5228C28.1847 18.3851 28.3714 18.3078 28.5662 18.3078H29.7287L29.2515 17.8305C28.3874 16.9622 27.214 16.4723 25.989 16.4685H25.9627C24.7486 16.4658 23.5823 16.9413 22.7161 17.792C22.5768 17.9281 22.3892 18.0034 22.1945 18.0012C21.9998 17.999 21.8139 17.9196 21.6777 17.7803C21.5416 17.6411 21.4663 17.4535 21.4685 17.2588C21.4707 17.064 21.5501 16.8782 21.6894 16.742C22.83 15.622 24.3659 14.9961 25.9645 15H25.9963C27.609 15.0044 29.154 15.649 30.2916 16.7922L30.7689 17.2676V16.1051C30.7689 15.9103 30.8462 15.7236 30.9839 15.5859C31.1216 15.4482 31.3084 15.3708 31.5031 15.3708C31.6979 15.3708 31.8846 15.4482 32.0223 15.5859C32.16 15.7236 32.2374 15.9103 32.2374 16.1051ZM29.5213 24.208C28.6546 25.0592 27.4876 25.5346 26.2729 25.5315H26.2466C25.0216 25.5277 23.8482 25.0378 22.9841 24.1695L22.5087 23.6922H23.6712C23.8659 23.6922 24.0527 23.6149 24.1904 23.4772C24.3281 23.3395 24.4055 23.1527 24.4055 22.958C24.4055 22.7632 24.3281 22.5765 24.1904 22.4388C24.0527 22.3011 23.8659 22.2237 23.6712 22.2237H20.7342C20.5395 22.2237 20.3528 22.3011 20.2151 22.4388C20.0774 22.5765 20 22.7632 20 22.958V25.8949C20 26.0897 20.0774 26.2764 20.2151 26.4141C20.3528 26.5518 20.5395 26.6292 20.7342 26.6292C20.929 26.6292 21.1157 26.5518 21.2534 26.4141C21.3911 26.2764 21.4685 26.0897 21.4685 25.8949V24.7324L21.9457 25.2097C23.0836 26.3521 24.6286 26.9961 26.2411 27H26.2753C27.8739 27.0039 29.4098 26.378 30.5504 25.258C30.6194 25.1906 30.6744 25.1102 30.7123 25.0216C30.7502 24.9329 30.7702 24.8376 30.7713 24.7412C30.7724 24.6448 30.7545 24.5491 30.7186 24.4596C30.6827 24.3701 30.6295 24.2886 30.5621 24.2197C30.4947 24.1507 30.4143 24.0957 30.3257 24.0578C30.237 24.0199 30.1417 23.9999 30.0453 23.9988C29.9489 23.9977 29.8532 24.0156 29.7637 24.0515C29.6742 24.0874 29.5927 24.1406 29.5237 24.208H29.5213Z" fill="#1DBC79"/>
</svg>
