<svg width="562" height="119" viewBox="0 0 562 119" fill="none" xmlns="http://www.w3.org/2000/svg">
<rect x="422.762" y="19.8301" width="10.976" height="4.25" transform="rotate(105 422.762 19.8301)" fill="#FFED36" fill-opacity="0.45"/>
<rect x="11.7617" y="114.83" width="10.976" height="4.25" transform="rotate(161 11.7617 114.83)" fill="#9AF5FC" fill-opacity="0.6"/>
<rect x="75.7617" y="77.8301" width="21.976" height="2.25" transform="rotate(-81 75.7617 77.8301)" fill="#FC9E1C" fill-opacity="0.45"/>
<rect x="17.7617" y="60.8301" width="19.976" height="3.25" transform="rotate(104 17.7617 60.8301)" fill="#F62584" fill-opacity="0.45"/>
<circle cx="400.182" cy="12.2501" r="4.42" fill="#BA3E03" fill-opacity="0.9"/>
<circle cx="340.182" cy="15.2501" r="1.42" fill="#755FFE" fill-opacity="0.45"/>
<circle cx="144.682" cy="19.7501" r="1.92" fill="#03A3F5" fill-opacity="0.85"/>
<path d="M441.399 89.1087L440.312 92.2667L437.033 92.904L434.842 90.3833L435.929 87.2253L439.208 86.588L441.399 89.1087Z" fill="#FF21FB" fill-opacity="0.6"/>
<path d="M360.943 12.1762L359.929 10.2122L357.778 9.70347L359.742 8.6895L360.251 6.53853L361.265 8.50254L363.416 9.01125L361.452 10.0252L360.943 12.1762Z" fill="#BA3E03" fill-opacity="0.65"/>
<path d="M372.428 48.1776L375.343 46.2112L374.374 42.8309L377.145 44.9959L380.06 43.0295L378.857 46.3339L381.628 48.4989L378.114 48.3761L376.911 51.6805L375.942 48.3003L372.428 48.1776Z" fill="#C9FCBE"/>
<path d="M46.9754 95.0948L44.7305 98.5924L45.9244 102.573L42.4268 100.328L38.446 101.522L40.6908 98.0246L39.497 94.0438L42.9946 96.2886L46.9754 95.0948Z" fill="#755FFE" fill-opacity="0.6"/>
<path d="M15.1104 35.6266L18.0863 32.8586L15.4161 29.7946L19.3012 30.9877L20.6195 27.1433L21.5288 31.1045L25.5174 30.324L22.5415 33.092L25.2117 36.156L21.3266 34.9628L20.0083 38.8073L19.099 34.8461L15.1104 35.6266Z" fill="#DCBCFA" fill-opacity="0.9"/>
<path d="M358.053 92.1574L355.819 93.1055L356.031 95.523L354.439 93.6915L352.205 94.6397L353.455 92.5597L351.863 90.7282L354.227 91.2741L355.477 89.1941L355.688 91.6115L358.053 92.1574Z" fill="#F54721" fill-opacity="0.35"/>
<path d="M35.5231 50.4269L32.4976 48.9465L30.92 51.9225L30.6893 48.5622L27.3232 48.6839L30.118 46.8039L28.3295 43.9497L31.355 45.4301L32.9326 42.4541L33.1633 45.8144L36.5294 45.6927L33.7346 47.5727L35.5231 50.4269Z" fill="#FFED36" fill-opacity="0.75"/>
<path d="M267.846 23.675L264.712 21.5853L261.086 22.6042L263.175 19.4701L262.156 15.8437L265.29 17.9334L268.917 16.9144L266.827 20.0485L267.846 23.675Z" fill="#9DED1A" fill-opacity="0.9"/>
<path d="M171.296 86.3305L171.156 89.3158L173.331 91.3656L170.346 91.2252L168.296 93.4L168.436 90.4147L166.261 88.3648L169.247 88.5053L171.296 86.3305Z" fill="#03A3F5" fill-opacity="0.85"/>
<path d="M394.846 6.56605L392.332 5.90669L390.194 7.38627L390.854 4.87184L389.374 2.73456L391.888 3.39392L394.026 1.91433L393.366 4.42877L394.846 6.56605Z" fill="#03A3F5" fill-opacity="0.35"/>
<rect x="331.762" y="3.83008" width="13.976" height="2.25" transform="rotate(20 331.762 3.83008)" fill="#480CA7" fill-opacity="0.35"/>
<rect x="105.762" y="11.8301" width="7.976" height="3.25" transform="rotate(-79 105.762 11.8301)" fill="#C9FCBE" fill-opacity="0.35"/>
<rect x="215.762" y="8.83008" width="16.976" height="2.25" transform="rotate(-21 215.762 8.83008)" fill="#BA3E03" fill-opacity="0.9"/>
<rect x="42.7617" y="89.8301" width="18.976" height="4.25" transform="rotate(134 42.7617 89.8301)" fill="#F54721" fill-opacity="0.45"/>
<rect x="444.762" y="59.8301" width="13.976" height="4.25" transform="rotate(-90 444.762 59.8301)" fill="#BA3E03" fill-opacity="0.75"/>
<circle cx="13.1817" cy="42.2501" r="1.42" fill="#9AF5FC" fill-opacity="0.65"/>
<circle cx="355.182" cy="49.2501" r="1.42" fill="#FF21FB" fill-opacity="0.65"/>
<path d="M135.462 46.4809L129.971 43.4374L131.169 37.2752L137.4 36.5102L140.053 42.1996L135.462 46.4809Z" fill="#F54721" fill-opacity="0.45"/>
<path d="M560.575 98.3176L559.198 103.838L553.522 104.235L551.391 98.9598L555.75 95.3025L560.575 98.3176Z" fill="#9AF5FC" fill-opacity="0.85"/>
<path d="M79.0036 61.8112L84.693 64.4642L83.928 70.6949L77.7657 71.8927L74.7223 66.4023L79.0036 61.8112Z" fill="#FC9E1C" fill-opacity="0.75"/>
<path d="M105.57 51.2501L98.9586 49.4785L100.73 42.867L107.342 44.6385L105.57 51.2501Z" fill="#F54721" fill-opacity="0.65"/>
<path d="M344.004 57.2544L337.803 56.2724L336.821 50.0721L342.415 47.2222L346.854 51.6611L344.004 57.2544Z" fill="#9AF5FC" fill-opacity="0.65"/>
<path d="M338.355 58.1452L336.058 58.5059L336.345 60.8126L334.884 59.0044L333.03 60.4056L333.865 58.2366L331.724 57.3311L334.021 56.9704L333.735 54.6637L335.195 56.4719L337.05 55.0707L336.214 57.2397L338.355 58.1452Z" fill="#C9FCBE" fill-opacity="0.45"/>
<path d="M177.671 70.2626L174.381 68.2066L171.409 70.7005L172.347 66.936L169.057 64.88L172.927 64.6094L173.866 60.8449L175.319 64.4421L179.19 64.1715L176.218 66.6653L177.671 70.2626Z" fill="#F54721" fill-opacity="0.75"/>
<path d="M532.335 105.798L530.403 109.478L531.94 113.34L528.26 111.409L524.398 112.945L526.33 109.265L524.793 105.403L528.473 107.335L532.335 105.798Z" fill="#FC9E1C" fill-opacity="0.35"/>
<path d="M216.505 71.2515L214.532 73.2243L215.799 75.7102L213.313 74.4436L211.34 76.4163L211.777 73.6608L209.291 72.3942L212.046 71.9577L212.483 69.2021L213.749 71.688L216.505 71.2515Z" fill="#9DED1A" fill-opacity="0.45"/>
<path d="M417.417 34.3782L414.69 36.3546L416.577 39.1447L413.501 37.7708L412.029 40.8L411.681 37.4498L408.321 37.6889L411.048 35.7125L409.161 32.9225L412.237 34.2963L413.709 31.2671L414.057 34.6174L417.417 34.3782Z" fill="#C9FCBE" fill-opacity="0.75"/>
</svg>
