<svg width="31" height="21" viewBox="0 0 31 21" fill="none" xmlns="http://www.w3.org/2000/svg">
<path d="M30.5993 9.81995C30.5551 9.71859 29.474 7.32111 27.0596 4.90673C24.8193 2.66907 20.9704 0 15.3333 0C9.69632 0 5.84734 2.66907 3.60709 4.90673C1.19271 7.32111 0.111563 9.71469 0.0673818 9.81995C0.0229567 9.91975 0 10.0278 0 10.137C0 10.2463 0.0229567 10.3543 0.0673818 10.4541C0.111563 10.5541 1.19271 12.9516 3.60709 15.366C5.84734 17.6037 9.69632 20.2714 15.3333 20.2714C20.9704 20.2714 24.8193 17.6037 27.0596 15.366C29.474 12.9516 30.5551 10.558 30.5993 10.4541C30.6437 10.3543 30.6667 10.2463 30.6667 10.137C30.6667 10.0278 30.6437 9.91975 30.5993 9.81995ZM15.3333 18.7121C11.2557 18.7121 7.69516 17.2281 4.7493 14.3031C3.51445 13.0757 2.46947 11.6712 1.64881 10.1357C2.46925 8.60049 3.51426 7.19634 4.7493 5.96968C7.69516 3.04331 11.2557 1.55934 15.3333 1.55934C19.411 1.55934 22.9715 3.04331 25.9174 5.96968C27.1524 7.19634 28.1974 8.60049 29.0179 10.1357C28.1901 11.7223 24.0397 18.7121 15.3333 18.7121ZM15.3333 4.15824C14.1511 4.15824 12.9954 4.50882 12.0124 5.16563C11.0294 5.82244 10.2633 6.756 9.81087 7.84824C9.35845 8.94048 9.24007 10.1423 9.47072 11.3019C9.70136 12.4614 10.2707 13.5265 11.1066 14.3624C11.9426 15.1984 13.0077 15.7677 14.1672 15.9983C15.3267 16.229 16.5286 16.1106 17.6208 15.6582C18.7131 15.2058 19.6466 14.4396 20.3034 13.4566C20.9602 12.4736 21.3108 11.318 21.3108 10.1357C21.3087 8.55103 20.6783 7.03183 19.5578 5.91128C18.4372 4.79074 16.918 4.16031 15.3333 4.15824ZM15.3333 14.5539C14.4595 14.5539 13.6053 14.2947 12.8788 13.8093C12.1522 13.3238 11.5859 12.6338 11.2515 11.8265C10.9171 11.0192 10.8296 10.1308 11.0001 9.27378C11.1706 8.41675 11.5914 7.62951 12.2092 7.01163C12.8271 6.39374 13.6144 5.97295 14.4714 5.80248C15.3284 5.632 16.2168 5.7195 17.0241 6.05389C17.8314 6.38829 18.5214 6.95458 19.0069 7.68113C19.4924 8.40769 19.7515 9.26189 19.7515 10.1357C19.7515 11.3075 19.286 12.4312 18.4574 13.2598C17.6289 14.0884 16.5051 14.5539 15.3333 14.5539Z" fill="#1DBC79"/>
</svg>
