<svg width="18" height="18" viewBox="0 0 18 18" fill="none" xmlns="http://www.w3.org/2000/svg">
<path d="M8.96428 0.623047C7.27489 0.623047 5.62345 1.12401 4.21878 2.06258C2.81411 3.00115 1.71931 4.33517 1.07281 5.89596C0.426308 7.45674 0.257155 9.17419 0.586737 10.8311C0.916319 12.488 1.72983 14.01 2.92441 15.2046C4.11898 16.3992 5.64096 17.2127 7.29788 17.5422C8.9548 17.8718 10.6722 17.7027 12.233 17.0562C13.7938 16.4097 15.1278 15.3149 16.0664 13.9102C17.005 12.5055 17.5059 10.8541 17.5059 9.16471C17.5035 6.90006 16.6029 4.72884 15.0015 3.12748C13.4001 1.52613 11.2289 0.625438 8.96428 0.623047ZM8.96428 16.3923C7.5348 16.3923 6.13742 15.9684 4.94886 15.1742C3.76029 14.38 2.83392 13.2512 2.28688 11.9306C1.73984 10.6099 1.59671 9.15669 1.87559 7.75468C2.15447 6.35267 2.84282 5.06485 3.85362 4.05405C4.86441 3.04326 6.15224 2.3549 7.55425 2.07602C8.95626 1.79715 10.4095 1.94028 11.7301 2.48731C13.0508 3.03435 14.1796 3.96073 14.9738 5.14929C15.768 6.33786 16.1918 7.73523 16.1918 9.16471C16.1897 11.0809 15.4275 12.918 14.0725 14.273C12.7176 15.6279 10.8805 16.3901 8.96428 16.3923ZM14.2207 9.16471C14.2207 9.33897 14.1515 9.5061 14.0282 9.62932C13.905 9.75254 13.7379 9.82176 13.5636 9.82176H8.96428C8.79002 9.82176 8.62289 9.75254 8.49967 9.62932C8.37645 9.5061 8.30722 9.33897 8.30722 9.16471V4.56535C8.30722 4.39109 8.37645 4.22397 8.49967 4.10075C8.62289 3.97753 8.79002 3.9083 8.96428 3.9083C9.13854 3.9083 9.30566 3.97753 9.42888 4.10075C9.5521 4.22397 9.62133 4.39109 9.62133 4.56535V8.50766H13.5636C13.7379 8.50766 13.905 8.57689 14.0282 8.70011C14.1515 8.82333 14.2207 8.99045 14.2207 9.16471Z" fill="#1DBC79"/>
</svg>
