<svg width="22" height="22" viewBox="0 0 22 22" fill="none" xmlns="http://www.w3.org/2000/svg">
<path d="M10.9355 9.69282C10.3088 9.69303 9.70314 9.91875 9.22917 10.3287C8.7552 10.7387 8.44459 11.3055 8.35411 11.9257C8.26363 12.5458 8.39933 13.1777 8.7364 13.706C9.07347 14.2343 9.5894 14.6237 10.1899 14.803V16.4032C10.1899 16.601 10.2684 16.7906 10.4083 16.9304C10.5481 17.0703 10.7378 17.1488 10.9355 17.1488C11.1332 17.1488 11.3229 17.0703 11.4627 16.9304C11.6025 16.7906 11.6811 16.601 11.6811 16.4032V14.803C12.2816 14.6237 12.7975 14.2343 13.1346 13.706C13.4717 13.1777 13.6074 12.5458 13.5169 11.9257C13.4264 11.3055 13.1158 10.7387 12.6418 10.3287C12.1679 9.91875 11.5622 9.69303 10.9355 9.69282ZM10.9355 13.4208C10.7143 13.4208 10.4981 13.3552 10.3141 13.2323C10.1302 13.1094 9.98688 12.9348 9.90223 12.7304C9.81758 12.5261 9.79543 12.3012 9.83858 12.0842C9.88174 11.8673 9.98825 11.668 10.1447 11.5116C10.3011 11.3552 10.5004 11.2487 10.7173 11.2055C10.9343 11.1624 11.1591 11.1845 11.3635 11.2692C11.5679 11.3538 11.7425 11.4971 11.8654 11.6811C11.9883 11.865 12.0539 12.0812 12.0539 12.3024C12.0539 12.599 11.9361 12.8835 11.7263 13.0932C11.5166 13.303 11.2321 13.4208 10.9355 13.4208ZM18.3915 6.71041H15.4091V4.47361C15.4091 3.28713 14.9378 2.14925 14.0988 1.31029C13.2598 0.471325 12.122 0 10.9355 0C9.74902 0 8.61114 0.471325 7.77218 1.31029C6.93321 2.14925 6.46189 3.28713 6.46189 4.47361V6.71041H3.47948C3.08399 6.71041 2.7047 6.86752 2.42504 7.14717C2.14539 7.42683 1.98828 7.80612 1.98828 8.20161V18.64C1.98828 19.0355 2.14539 19.4148 2.42504 19.6945C2.7047 19.9741 3.08399 20.1312 3.47948 20.1312H18.3915C18.787 20.1312 19.1663 19.9741 19.4459 19.6945C19.7256 19.4148 19.8827 19.0355 19.8827 18.64V8.20161C19.8827 7.80612 19.7256 7.42683 19.4459 7.14717C19.1663 6.86752 18.787 6.71041 18.3915 6.71041ZM7.95309 4.47361C7.95309 3.68262 8.26731 2.92404 8.82662 2.36473C9.38593 1.80542 10.1445 1.4912 10.9355 1.4912C11.7265 1.4912 12.4851 1.80542 13.0444 2.36473C13.6037 2.92404 13.9179 3.68262 13.9179 4.47361V6.71041H7.95309V4.47361ZM18.3915 18.64H3.47948V8.20161H18.3915V18.64Z" fill="#E93C3C"/>
</svg>
