<svg width="20" height="20" viewBox="0 0 20 20" fill="none" xmlns="http://www.w3.org/2000/svg">
<g filter="url(#filter0_d_328_1779)">
<path d="M15.3793 0.862529C15.3658 0.640412 15.2715 0.430916 15.1142 0.273566C14.9568 0.116216 14.7473 0.0218939 14.5252 0.00839581C13.8089 -0.0343108 11.9782 0.0311727 10.459 1.54982L10.1885 1.82371H6.86705C6.74694 1.82304 6.6279 1.84625 6.51685 1.892C6.4058 1.93775 6.30496 2.00512 6.22018 2.0902L4.26707 4.04446C4.14729 4.16416 4.06324 4.31487 4.02435 4.47968C3.98546 4.64449 3.99328 4.81687 4.04691 4.97749C4.10055 5.13811 4.19789 5.28059 4.328 5.38897C4.45812 5.49734 4.61586 5.5673 4.78353 5.59101L6.9741 5.89679L9.49151 8.4142L9.79729 10.6059C9.82081 10.7736 9.89075 10.9313 9.99923 11.0613C10.1077 11.1914 10.2504 11.2884 10.4111 11.3416C10.5048 11.3729 10.6028 11.3888 10.7015 11.3889C10.8211 11.3891 10.9395 11.3657 11.0499 11.3199C11.1603 11.2742 11.2606 11.207 11.345 11.1224L13.2992 9.16926C13.3843 9.08448 13.4517 8.98364 13.4974 8.87259C13.5432 8.76153 13.5664 8.6425 13.5657 8.52239V5.20095L13.8373 4.92934C15.3566 3.41012 15.422 1.57943 15.3793 0.862529ZM6.86705 2.73479H9.27741L7.02649 4.98514L4.91051 4.69018L6.86705 2.73479ZM11.1041 2.19668C11.5418 1.75626 12.0685 1.4143 12.6489 1.19366C13.2294 0.973014 13.8502 0.878761 14.47 0.917193C14.5099 1.53728 14.4166 2.15873 14.1964 2.73978C13.9762 3.32083 13.6342 3.84801 13.1933 4.28589L9.92143 7.55665L7.83279 5.46801L11.1041 2.19668ZM12.6547 8.52239L10.6998 10.4789L10.4043 8.36238L12.6547 6.11203V8.52239ZM8.43182 9.06334C8.17558 9.62479 7.3186 10.9345 4.91051 10.9345C4.7897 10.9345 4.67383 10.8865 4.5884 10.801C4.50297 10.7156 4.45498 10.5997 4.45498 10.4789C4.45498 8.07084 5.76465 7.21386 6.3261 6.95705C6.38053 6.93222 6.43933 6.91836 6.49912 6.91626C6.55892 6.91416 6.61854 6.92385 6.67459 6.94479C6.73064 6.96573 6.78201 6.9975 6.82578 7.03829C6.86955 7.07909 6.90486 7.1281 6.92968 7.18254C6.95451 7.23698 6.96837 7.29577 6.97047 7.35557C6.97258 7.41536 6.96288 7.47499 6.94195 7.53104C6.92101 7.58709 6.88923 7.63846 6.84844 7.68223C6.80765 7.726 6.75863 7.7613 6.70419 7.78613C6.33805 7.95297 5.53004 8.48993 5.38769 10.0017C6.8995 9.85939 7.43761 9.05138 7.60331 8.68525C7.62814 8.63081 7.66344 8.58179 7.70721 8.541C7.75098 8.50021 7.80235 8.46843 7.8584 8.44749C7.91445 8.42655 7.97407 8.41686 8.03387 8.41897C8.09366 8.42107 8.15246 8.43493 8.2069 8.45976C8.26133 8.48458 8.31035 8.51989 8.35114 8.56366C8.39194 8.60743 8.42371 8.6588 8.44465 8.71485C8.46559 8.7709 8.47528 8.83052 8.47318 8.89032C8.47108 8.95011 8.45665 9.0089 8.43182 9.06334Z" fill="white"/>
</g>
<defs>
<filter id="filter0_d_328_1779" x="0" y="0" width="19.3877" height="19.3887" filterUnits="userSpaceOnUse" color-interpolation-filters="sRGB">
<feFlood flood-opacity="0" result="BackgroundImageFix"/>
<feColorMatrix in="SourceAlpha" type="matrix" values="0 0 0 0 0 0 0 0 0 0 0 0 0 0 0 0 0 0 127 0" result="hardAlpha"/>
<feOffset dy="4"/>
<feGaussianBlur stdDeviation="2"/>
<feComposite in2="hardAlpha" operator="out"/>
<feColorMatrix type="matrix" values="0 0 0 0 0 0 0 0 0 0 0 0 0 0 0 0 0 0 0.25 0"/>
<feBlend mode="normal" in2="BackgroundImageFix" result="effect1_dropShadow_328_1779"/>
<feBlend mode="normal" in="SourceGraphic" in2="effect1_dropShadow_328_1779" result="shape"/>
</filter>
</defs>
</svg>
