<svg width="14" height="14" viewBox="0 0 14 14" fill="none" xmlns="http://www.w3.org/2000/svg">
<path d="M13.3855 6.0625L10.6253 8.44423L11.4662 12.0061C11.5126 12.1995 11.5007 12.4022 11.4319 12.5888C11.3631 12.7754 11.2406 12.9374 11.0798 13.0543C10.9189 13.1713 10.7271 13.238 10.5284 13.2459C10.3297 13.2539 10.1331 13.2028 9.96345 13.0991L6.86592 11.1928L3.76654 13.0991C3.5969 13.2022 3.40054 13.2528 3.2022 13.2446C3.00385 13.2363 2.81239 13.1695 2.65192 13.0527C2.49144 12.9358 2.36913 12.7741 2.30039 12.5878C2.23165 12.4016 2.21955 12.1992 2.26561 12.0061L3.10961 8.44423L0.349432 6.0625C0.199338 5.93278 0.0907871 5.76171 0.0373362 5.57067C-0.0161147 5.37962 -0.012097 5.17706 0.0488876 4.98828C0.109872 4.7995 0.225121 4.63288 0.380241 4.50921C0.53536 4.38554 0.723477 4.31031 0.921096 4.29292L4.54 4.00095L5.93604 0.622489C6.01161 0.438365 6.14022 0.28087 6.30552 0.170027C6.47082 0.0591838 6.66536 0 6.86438 0C7.06341 0 7.25794 0.0591838 7.42325 0.170027C7.58855 0.28087 7.71716 0.438365 7.79272 0.622489L9.18815 4.00095L12.8071 4.29292C13.0051 4.30967 13.1937 4.38447 13.3494 4.50797C13.5051 4.63147 13.6209 4.79816 13.6822 4.98717C13.7436 5.17618 13.7478 5.37909 13.6944 5.57048C13.6409 5.76188 13.5322 5.93325 13.3818 6.06312L13.3855 6.0625Z" fill="#FFBF00"/>
</svg>
