<svg width="12" height="13" viewBox="0 0 12 13" fill="none" xmlns="http://www.w3.org/2000/svg">
<path d="M11.4124 12.5926L6.95507 8.1353C6.59916 8.43853 6.18988 8.67318 5.7272 8.83927C5.26453 9.00536 4.79948 9.0884 4.33206 9.0884C3.19223 9.0884 2.22749 8.69383 1.43786 7.90467C0.648233 7.11552 0.253418 6.15102 0.253418 5.01118C0.253418 3.87134 0.647758 2.90637 1.43644 2.11627C2.22512 1.32616 3.18938 0.930638 4.32922 0.929689C5.46906 0.92874 6.43426 1.32355 7.22484 2.11413C8.01542 2.90471 8.41071 3.86968 8.41071 5.00905C8.41071 5.50351 8.32316 5.98208 8.14805 6.44476C7.97295 6.90743 7.7428 7.3032 7.4576 7.63205L11.9149 12.0887L11.4124 12.5926ZM4.33278 8.37589C5.2771 8.37589 6.07433 8.05083 6.72444 7.40071C7.37456 6.7506 7.69962 5.95314 7.69962 5.00833C7.69962 4.06353 7.37456 3.26631 6.72444 2.61667C6.07433 1.96703 5.2771 1.64197 4.33278 1.64149C3.38845 1.64102 2.59099 1.96608 1.9404 2.61667C1.28981 3.26726 0.964749 4.06448 0.965224 5.00833C0.965698 5.95219 1.29076 6.74941 1.9404 7.4C2.59004 8.05059 3.38726 8.37565 4.33206 8.37518" fill="#8A8A8E"/>
</svg>
