<svg width="13" height="14" viewBox="0 0 13 14" fill="none" xmlns="http://www.w3.org/2000/svg">
<path d="M11.9099 9.64875C11.5681 9.05984 11.0599 7.39353 11.0599 5.21716C11.0599 3.91015 10.5406 2.65667 9.61644 1.73247C8.69225 0.808271 7.43877 0.289063 6.13175 0.289062C4.82474 0.289063 3.57126 0.808271 2.64706 1.73247C1.72286 2.65667 1.20366 3.91015 1.20366 5.21716C1.20366 7.39415 0.694829 9.05984 0.352943 9.64875C0.265636 9.79847 0.219351 9.96856 0.218756 10.1419C0.218161 10.3152 0.263277 10.4856 0.349554 10.6359C0.435831 10.7862 0.560218 10.9111 0.710171 10.998C0.860125 11.0849 1.03034 11.1308 1.20366 11.1309H3.7176C3.8313 11.6872 4.13367 12.1872 4.57357 12.5463C5.01347 12.9054 5.5639 13.1016 6.13175 13.1016C6.69961 13.1016 7.25004 12.9054 7.68994 12.5463C8.12984 12.1872 8.43221 11.6872 8.54591 11.1309H11.0599C11.2331 11.1306 11.4033 11.0847 11.5531 10.9978C11.703 10.9108 11.8273 10.7859 11.9135 10.6356C11.9997 10.4853 12.0448 10.315 12.0441 10.1417C12.0435 9.96846 11.9972 9.79842 11.9099 9.64875ZM6.13175 12.1165C5.8261 12.1164 5.52799 12.0216 5.27845 11.8451C5.02891 11.6686 4.84022 11.419 4.73833 11.1309H7.52517C7.42329 11.419 7.23459 11.6686 6.98505 11.8451C6.73552 12.0216 6.43741 12.1164 6.13175 12.1165ZM1.20366 10.1453C1.67799 9.32966 2.18928 7.43973 2.18928 5.21716C2.18928 4.17155 2.60464 3.16877 3.344 2.42941C4.08336 1.69005 5.08614 1.27468 6.13175 1.27468C7.17736 1.27468 8.18015 1.69005 8.91951 2.42941C9.65887 3.16877 10.0742 4.17155 10.0742 5.21716C10.0742 7.43788 10.5843 9.32781 11.0599 10.1453H1.20366Z" fill="#606062"/>
</svg>
