<svg width="23" height="23" viewBox="0 0 23 23" fill="none" xmlns="http://www.w3.org/2000/svg">
<path d="M16.5489 8.22029C16.6312 8.30244 16.6964 8.40001 16.741 8.5074C16.7855 8.61479 16.8084 8.7299 16.8084 8.84615C16.8084 8.9624 16.7855 9.07752 16.741 9.18491C16.6964 9.2923 16.6312 9.38986 16.5489 9.47202L10.3566 15.6643C10.2745 15.7466 10.1769 15.8118 10.0695 15.8563C9.96214 15.9009 9.84702 15.9238 9.73077 15.9238C9.61452 15.9238 9.49941 15.9009 9.39202 15.8563C9.28463 15.8118 9.18706 15.7466 9.10491 15.6643L6.45106 13.0105C6.28507 12.8445 6.19182 12.6194 6.19182 12.3846C6.19182 12.1499 6.28507 11.9247 6.45106 11.7587C6.61705 11.5928 6.84218 11.4995 7.07693 11.4995C7.31167 11.4995 7.5368 11.5928 7.70279 11.7587L9.73077 13.7878L15.2972 8.22029C15.3794 8.13804 15.4769 8.07279 15.5843 8.02827C15.6917 7.98375 15.8068 7.96084 15.9231 7.96084C16.0393 7.96084 16.1544 7.98375 16.2618 8.02827C16.3692 8.07279 16.4668 8.13804 16.5489 8.22029ZM23 11.5C23 13.7745 22.3255 15.9979 21.0619 17.8891C19.7983 19.7802 18.0022 21.2542 15.9009 22.1246C13.7995 22.995 11.4872 23.2228 9.25646 22.779C7.02568 22.3353 4.97658 21.24 3.36828 19.6317C1.75997 18.0234 0.664704 15.9743 0.220974 13.7435C-0.222756 11.5128 0.00498277 9.20049 0.87539 7.09914C1.7458 4.99779 3.21978 3.20174 5.11095 1.9381C7.00211 0.674463 9.22552 0 11.5 0C14.549 0.0032198 17.4722 1.21586 19.6282 3.37183C21.7841 5.5278 22.9968 8.451 23 11.5ZM21.2308 11.5C21.2308 9.57543 20.6601 7.69409 19.5908 6.09387C18.5216 4.49366 17.0019 3.24644 15.2238 2.50994C13.4457 1.77344 11.4892 1.58074 9.60162 1.9562C7.71404 2.33167 5.98018 3.25843 4.61931 4.61931C3.25844 5.98018 2.33167 7.71404 1.95621 9.60162C1.58075 11.4892 1.77345 13.4457 2.50995 15.2238C3.24644 17.0019 4.49366 18.5216 6.09388 19.5908C7.69409 20.6601 9.57544 21.2308 11.5 21.2308C14.0799 21.2278 16.5532 20.2017 18.3775 18.3775C20.2017 16.5532 21.2278 14.0799 21.2308 11.5Z" fill="#1DBC79"/>
</svg>
