<svg width="22" height="23" viewBox="0 0 22 23" fill="none" xmlns="http://www.w3.org/2000/svg">
<path d="M19.4615 1.76923H16.8077V0.884615C16.8077 0.650001 16.7145 0.424995 16.5486 0.259098C16.3827 0.0932003 16.1577 0 15.9231 0C15.6885 0 15.4635 0.0932003 15.2976 0.259098C15.1317 0.424995 15.0385 0.650001 15.0385 0.884615V1.76923H6.19231V0.884615C6.19231 0.650001 6.09911 0.424995 5.93321 0.259098C5.76731 0.0932003 5.54231 0 5.30769 0C5.07308 0 4.84807 0.0932003 4.68218 0.259098C4.51628 0.424995 4.42308 0.650001 4.42308 0.884615V1.76923H1.76923C1.3 1.76923 0.849991 1.95563 0.518196 2.28743C0.186401 2.61922 0 3.06923 0 3.53846V21.2308C0 21.7 0.186401 22.15 0.518196 22.4818C0.849991 22.8136 1.3 23 1.76923 23H19.4615C19.9308 23 20.3808 22.8136 20.7126 22.4818C21.0444 22.15 21.2308 21.7 21.2308 21.2308V3.53846C21.2308 3.06923 21.0444 2.61922 20.7126 2.28743C20.3808 1.95563 19.9308 1.76923 19.4615 1.76923ZM4.42308 3.53846V4.42308C4.42308 4.65769 4.51628 4.8827 4.68218 5.04859C4.84807 5.21449 5.07308 5.30769 5.30769 5.30769C5.54231 5.30769 5.76731 5.21449 5.93321 5.04859C6.09911 4.8827 6.19231 4.65769 6.19231 4.42308V3.53846H15.0385V4.42308C15.0385 4.65769 15.1317 4.8827 15.2976 5.04859C15.4635 5.21449 15.6885 5.30769 15.9231 5.30769C16.1577 5.30769 16.3827 5.21449 16.5486 5.04859C16.7145 4.8827 16.8077 4.65769 16.8077 4.42308V3.53846H19.4615V7.07692H1.76923V3.53846H4.42308ZM19.4615 21.2308H1.76923V8.84615H19.4615V21.2308ZM11.9423 12.8269C11.9423 13.0894 11.8645 13.3459 11.7187 13.5641C11.5729 13.7823 11.3656 13.9524 11.1232 14.0528C10.8807 14.1533 10.6139 14.1795 10.3565 14.1283C10.0991 14.0771 9.86268 13.9508 9.67711 13.7652C9.49154 13.5796 9.36516 13.3432 9.31396 13.0858C9.26276 12.8284 9.28904 12.5616 9.38947 12.3191C9.4899 12.0767 9.65998 11.8694 9.87819 11.7236C10.0964 11.5778 10.3529 11.5 10.6154 11.5C10.9673 11.5 11.3048 11.6398 11.5537 11.8886C11.8025 12.1375 11.9423 12.475 11.9423 12.8269ZM16.8077 12.8269C16.8077 13.0894 16.7299 13.3459 16.5841 13.5641C16.4383 13.7823 16.231 13.9524 15.9886 14.0528C15.7461 14.1533 15.4793 14.1795 15.2219 14.1283C14.9645 14.0771 14.7281 13.9508 14.5425 13.7652C14.3569 13.5796 14.2305 13.3432 14.1793 13.0858C14.1281 12.8284 14.1544 12.5616 14.2549 12.3191C14.3553 12.0767 14.5254 11.8694 14.7436 11.7236C14.9618 11.5778 15.2183 11.5 15.4808 11.5C15.8327 11.5 16.1702 11.6398 16.419 11.8886C16.6679 12.1375 16.8077 12.475 16.8077 12.8269ZM7.07692 17.25C7.07692 17.5124 6.9991 17.769 6.8533 17.9872C6.70749 18.2054 6.50026 18.3755 6.25779 18.4759C6.01533 18.5763 5.74853 18.6026 5.49113 18.5514C5.23373 18.5002 4.9973 18.3738 4.81172 18.1883C4.62615 18.0027 4.49977 17.7663 4.44857 17.5089C4.39737 17.2515 4.42365 16.9847 4.52408 16.7422C4.62451 16.4997 4.79459 16.2925 5.0128 16.1467C5.23101 16.0009 5.48756 15.9231 5.75 15.9231C6.10192 15.9231 6.43943 16.0629 6.68828 16.3117C6.93712 16.5606 7.07692 16.8981 7.07692 17.25ZM11.9423 17.25C11.9423 17.5124 11.8645 17.769 11.7187 17.9872C11.5729 18.2054 11.3656 18.3755 11.1232 18.4759C10.8807 18.5763 10.6139 18.6026 10.3565 18.5514C10.0991 18.5002 9.86268 18.3738 9.67711 18.1883C9.49154 18.0027 9.36516 17.7663 9.31396 17.5089C9.26276 17.2515 9.28904 16.9847 9.38947 16.7422C9.4899 16.4997 9.65998 16.2925 9.87819 16.1467C10.0964 16.0009 10.3529 15.9231 10.6154 15.9231C10.9673 15.9231 11.3048 16.0629 11.5537 16.3117C11.8025 16.5606 11.9423 16.8981 11.9423 17.25ZM16.8077 17.25C16.8077 17.5124 16.7299 17.769 16.5841 17.9872C16.4383 18.2054 16.231 18.3755 15.9886 18.4759C15.7461 18.5763 15.4793 18.6026 15.2219 18.5514C14.9645 18.5002 14.7281 18.3738 14.5425 18.1883C14.3569 18.0027 14.2305 17.7663 14.1793 17.5089C14.1281 17.2515 14.1544 16.9847 14.2549 16.7422C14.3553 16.4997 14.5254 16.2925 14.7436 16.1467C14.9618 16.0009 15.2183 15.9231 15.4808 15.9231C15.8327 15.9231 16.1702 16.0629 16.419 16.3117C16.6679 16.5606 16.8077 16.8981 16.8077 17.25Z" fill="#1DBC79"/>
</svg>
