<svg width="92" height="115" viewBox="0 0 92 115" fill="none" xmlns="http://www.w3.org/2000/svg">
<path d="M45.701 114.715C70.941 114.715 91.402 95.3177 91.402 71.3905C91.402 47.4632 70.941 28.0664 45.701 28.0664C20.461 28.0664 0 47.4632 0 71.3905C0 95.3177 20.461 114.715 45.701 114.715Z" fill="#1DBC79"/>
<path d="M41.1743 87.9184C40.1462 87.9199 39.1454 87.6046 38.3229 87.0198L38.2737 86.9835L27.5334 79.1949C26.5392 78.4614 25.8912 77.3849 25.7308 76.2003C25.5703 75.0157 25.9105 73.819 26.677 72.8711C27.4436 71.9233 28.5743 71.3011 29.8227 71.1404C31.0711 70.9797 32.3359 71.2934 33.3414 72.0132L40.2982 77.0707L56.7373 56.7395C57.1182 56.2678 57.5935 55.8719 58.1359 55.5744C58.6782 55.277 59.2772 55.0838 59.8984 55.0058C60.5196 54.9279 61.1509 54.9669 61.7562 55.1204C62.3616 55.2739 62.9291 55.539 63.4262 55.9006L63.3245 56.0348L63.4292 55.9006C64.4327 56.6311 65.0895 57.7092 65.2554 58.8983C65.4213 60.0874 65.0828 61.2903 64.3141 62.243L44.9779 86.1465C44.5305 86.6972 43.9554 87.1428 43.297 87.4488C42.6387 87.7548 41.9148 87.9129 41.1816 87.9109L41.1743 87.9184Z" fill="white"/>
<path d="M15.1687 39.104C14.7282 39.1027 14.3063 38.9361 13.9949 38.6408C13.6836 38.3455 13.5082 37.9454 13.507 37.5279C13.5051 37.4039 13.5198 37.2802 13.5508 37.1597L22.154 1.23179C22.2192 0.961121 22.3583 0.711445 22.5573 0.507765C22.7563 0.304085 23.0083 0.153552 23.288 0.0712402C23.5677 -0.0110712 23.8653 -0.0222708 24.151 0.038763C24.4367 0.0997968 24.7005 0.230922 24.9159 0.419005L53.4414 25.4587C53.6561 25.6473 53.8147 25.8861 53.9015 26.1511C53.9883 26.4161 54.0001 26.698 53.9359 26.9687C53.8716 27.2394 53.7335 27.4894 53.5353 27.6936C53.3372 27.8978 53.0859 28.0491 52.8067 28.1324L15.6701 39.0332C15.5076 39.0802 15.3386 39.1041 15.1687 39.104Z" fill="#3F3D56"/>
<path d="M38.4975 12.841L20.5796 9.46081L20.8618 8.28125L36.7046 11.2667L38.4975 12.841Z" fill="white"/>
<path d="M52.6151 25.2298L18.3569 18.7677L18.6391 17.582L50.8192 23.649L52.6151 25.2298Z" fill="white"/>
<path d="M40.3479 31.408L37.7767 32.1616L16.1201 28.0762L16.4018 26.8906L40.3479 31.408Z" fill="white"/>
</svg>
