<svg width="22" height="22" viewBox="0 0 22 22" fill="none" xmlns="http://www.w3.org/2000/svg">
<path d="M22 10.9899C22 11.2328 21.9035 11.4657 21.7318 11.6374C21.56 11.8092 21.3271 11.9057 21.0842 11.9057H8.26345C8.02057 11.9057 7.78764 11.8092 7.6159 11.6374C7.44416 11.4657 7.34768 11.2328 7.34768 10.9899C7.34768 10.747 7.44416 10.5141 7.6159 10.3424C7.78764 10.1706 8.02057 10.0741 8.26345 10.0741H21.0842C21.3271 10.0741 21.56 10.1706 21.7318 10.3424C21.9035 10.5141 22 10.747 22 10.9899ZM8.26345 4.57951H21.0842C21.3271 4.57951 21.56 4.48302 21.7318 4.31128C21.9035 4.13954 22 3.90661 22 3.66374C22 3.42086 21.9035 3.18793 21.7318 3.01619C21.56 2.84445 21.3271 2.74797 21.0842 2.74797H8.26345C8.02057 2.74797 7.78764 2.84445 7.6159 3.01619C7.44416 3.18793 7.34768 3.42086 7.34768 3.66374C7.34768 3.90661 7.44416 4.13954 7.6159 4.31128C7.78764 4.48302 8.02057 4.57951 8.26345 4.57951ZM21.0842 17.4003H8.26345C8.02057 17.4003 7.78764 17.4968 7.6159 17.6685C7.44416 17.8403 7.34768 18.0732 7.34768 18.3161C7.34768 18.5589 7.44416 18.7919 7.6159 18.9636C7.78764 19.1353 8.02057 19.2318 8.26345 19.2318H21.0842C21.3271 19.2318 21.56 19.1353 21.7318 18.9636C21.9035 18.7919 22 18.5589 22 18.3161C22 18.0732 21.9035 17.8403 21.7318 17.6685C21.56 17.4968 21.3271 17.4003 21.0842 17.4003ZM1.34709 2.65181L1.85305 2.39768V8.24259C1.85305 8.48546 1.94954 8.71839 2.12128 8.89013C2.29302 9.06187 2.52595 9.15836 2.76882 9.15836C3.0117 9.15836 3.24463 9.06187 3.41637 8.89013C3.58811 8.71839 3.6846 8.48546 3.6846 8.24259V0.916426C3.68471 0.760247 3.64487 0.606634 3.56888 0.470188C3.49289 0.333743 3.38327 0.218999 3.25043 0.136865C3.11759 0.0547301 2.96595 0.00793359 2.80993 0.000923166C2.65391 -0.00608725 2.49869 0.0269214 2.35902 0.0968118L0.527477 1.01258C0.310102 1.12127 0.144806 1.31186 0.0679523 1.54242C0.0298982 1.65658 0.0147024 1.77712 0.0232331 1.89716C0.0317637 2.01719 0.0638536 2.13437 0.11767 2.242C0.171487 2.34964 0.245976 2.44562 0.336886 2.52446C0.427795 2.60331 0.533345 2.66347 0.647507 2.70153C0.878069 2.77838 1.12972 2.7605 1.34709 2.65181ZM5.48981 14.2775C5.43917 13.9148 5.31571 13.5661 5.12686 13.2523C4.93801 12.9386 4.68767 12.6662 4.39088 12.4517C3.79644 12.02 3.05811 11.835 2.33035 11.9353C1.6026 12.0356 0.941821 12.4134 0.486268 12.9897C0.312154 13.2133 0.174251 13.4628 0.0776054 13.7292C0.0271382 13.8438 0.000730147 13.9676 1.49278e-05 14.0929C-0.000700291 14.2182 0.0242923 14.3423 0.073447 14.4575C0.122602 14.5727 0.194873 14.6766 0.285792 14.7628C0.37671 14.849 0.484342 14.9156 0.60203 14.9585C0.719717 15.0014 0.844959 15.0197 0.970008 15.0123C1.09506 15.0049 1.21725 14.9719 1.32904 14.9153C1.44083 14.8588 1.53983 14.78 1.61992 14.6836C1.70001 14.5873 1.75949 14.4756 1.79467 14.3554C1.82673 14.2675 1.8723 14.1853 1.92975 14.1115C2.09129 13.9102 2.32423 13.779 2.58008 13.7451C2.83594 13.7112 3.09502 13.7773 3.30341 13.9295C3.40365 14.0004 3.48842 14.091 3.55258 14.1957C3.61673 14.3004 3.65892 14.417 3.67658 14.5385C3.69274 14.6552 3.68515 14.774 3.65426 14.8877C3.62338 15.0014 3.56984 15.1077 3.49686 15.2002C3.49353 15.2041 3.49047 15.2083 3.4877 15.2127L0.203524 19.5993C0.101753 19.7354 0.0398781 19.8972 0.0248252 20.0665C0.00977226 20.2358 0.0421351 20.406 0.118292 20.5579C0.194448 20.7099 0.311393 20.8376 0.456036 20.9269C0.600679 21.0162 0.767312 21.0634 0.937285 21.0634H4.60037C4.84324 21.0634 5.07617 20.9669 5.24791 20.7951C5.41965 20.6234 5.51614 20.3905 5.51614 20.1476C5.51614 19.9047 5.41965 19.6718 5.24791 19.5001C5.07617 19.3283 4.84324 19.2318 4.60037 19.2318H2.76882L4.95294 16.3094C5.17438 16.0242 5.33605 15.6972 5.42829 15.3481C5.52053 14.999 5.54146 14.6349 5.48981 14.2775Z" fill="#1DBC79"/>
</svg>
