<svg width="18" height="12" viewBox="0 0 18 12" fill="none" xmlns="http://www.w3.org/2000/svg">
<path d="M17.9604 5.81308C17.9345 5.75308 17.2999 4.33385 15.8828 2.90462C14.5679 1.58 12.3087 0 9 0C5.69132 0 3.43213 1.58 2.1172 2.90462C0.700067 4.33385 0.0654827 5.75077 0.0395502 5.81308C0.0134746 5.87216 0 5.9361 0 6.00077C0 6.06544 0.0134746 6.12938 0.0395502 6.18846C0.0654827 6.24769 0.700067 7.66692 2.1172 9.09615C3.43213 10.4208 5.69132 12 9 12C12.3087 12 14.5679 10.4208 15.8828 9.09615C17.2999 7.66692 17.9345 6.25 17.9604 6.18846C17.9865 6.12938 18 6.06544 18 6.00077C18 5.9361 17.9865 5.87216 17.9604 5.81308ZM9 11.0769C6.60658 11.0769 4.51672 10.1985 2.78763 8.46692C2.0628 7.74042 1.44944 6.90897 0.967782 6C1.4493 5.09117 2.06268 4.25996 2.78763 3.53385C4.51672 1.80154 6.60658 0.923077 9 0.923077C11.3934 0.923077 13.4833 1.80154 15.2124 3.53385C15.9373 4.25996 16.5507 5.09117 17.0322 6C16.5464 6.93923 14.1102 11.0769 9 11.0769ZM9 2.46154C8.30608 2.46154 7.62775 2.66907 7.05077 3.05788C6.4738 3.44669 6.0241 3.99932 5.75855 4.64589C5.493 5.29246 5.42352 6.00393 5.5589 6.69032C5.69427 7.37671 6.02843 8.00721 6.5191 8.50207C7.00978 8.99693 7.63494 9.33394 8.31552 9.47047C8.99611 9.607 9.70155 9.53693 10.3427 9.26911C10.9837 9.0013 11.5317 8.54776 11.9172 7.96586C12.3027 7.38397 12.5085 6.69984 12.5085 6C12.5073 5.06192 12.1373 4.1626 11.4796 3.49928C10.8218 2.83595 9.93015 2.46276 9 2.46154ZM9 8.61539C8.4871 8.61539 7.98572 8.462 7.55927 8.17461C7.13281 7.88723 6.80042 7.47876 6.60415 7.00086C6.40787 6.52296 6.35651 5.9971 6.45658 5.48976C6.55664 4.98243 6.80362 4.51641 7.16629 4.15064C7.52897 3.78488 7.99104 3.53578 8.49408 3.43487C8.99712 3.33395 9.51854 3.38575 9.99239 3.5837C10.4662 3.78165 10.8713 4.11687 11.1562 4.54697C11.4412 4.97707 11.5933 5.48273 11.5933 6C11.5933 6.69364 11.32 7.35888 10.8337 7.84936C10.3474 8.33984 9.68777 8.61539 9 8.61539Z" fill="black" fill-opacity="0.8"/>
</svg>
